<svg width="358" height="370" viewBox="0 0 358 370" fill="none" xmlns="http://www.w3.org/2000/svg">
<g clip-path="url(#clip0_55_379)">
<path d="M189.198 127.085C189.573 127.487 190.026 127.808 190.53 128.027C191.033 128.247 191.577 128.361 192.126 128.361C192.563 128.358 192.996 128.287 193.411 128.15C194.144 127.914 194.793 127.472 195.281 126.877C195.768 126.281 196.073 125.558 196.16 124.794C197.787 111.465 197.469 110.514 197.217 109.742C196.397 107.438 194.707 105.545 192.509 104.469C190.311 103.393 187.78 103.218 185.454 103.982C183.129 104.746 181.195 106.388 180.065 108.557C178.935 110.727 178.699 113.252 179.407 115.593C179.659 116.366 179.976 117.325 189.198 127.085ZM185.026 111.01C185.242 110.577 185.541 110.192 185.907 109.877C186.273 109.562 186.698 109.322 187.157 109.173C188.049 108.881 189.019 108.939 189.87 109.336C190.72 109.733 191.388 110.439 191.736 111.31C191.736 112.188 191.557 115.057 190.923 120.608C187.116 116.544 185.23 114.334 184.75 113.602C184.518 112.734 184.616 111.81 185.026 111.01Z" fill="black" fill-opacity="0.05"/>
<path d="M79.2772 108.905C79.6046 108.999 79.9451 109.041 80.2857 109.027C81.6357 109.027 84.8318 108.645 94.2332 106.873C94.985 106.724 95.6794 106.367 96.2365 105.841C96.7936 105.315 97.1906 104.642 97.3819 103.901C97.5731 103.159 97.5508 102.379 97.3175 101.649C97.0841 100.92 96.6493 100.271 96.063 99.7779C85.7102 91.22 84.7342 90.968 83.9535 90.7648C81.5765 90.2314 79.085 90.6434 77.0067 91.9136C74.9283 93.1838 73.4262 95.2125 72.8185 97.5701C72.2107 99.9277 72.545 102.429 73.7505 104.545C74.956 106.66 76.9382 108.224 79.2772 108.905ZM78.0736 98.8758C78.2788 98.0853 78.7406 97.3852 79.3867 96.8851C80.0328 96.3851 80.8266 96.1134 81.6438 96.1125C81.8788 96.1132 82.1132 96.1377 82.3432 96.1857C83.0996 96.6327 85.4092 98.3557 89.7358 101.875C84.2381 102.866 81.3917 103.256 80.5052 103.289C79.6146 103 78.8675 102.383 78.4158 101.563C77.9641 100.743 77.8418 99.7825 78.0736 98.8758Z" fill="black" fill-opacity="0.05"/>
<path d="M77.545 173.996C79.046 173.996 80.5247 173.633 81.8553 172.939C82.5792 172.565 83.4819 172.126 91.6145 161.423C92.0754 160.81 92.3533 160.079 92.416 159.315C92.4788 158.55 92.3238 157.784 91.9692 157.104C91.6145 156.424 91.0745 155.858 90.4117 155.472C89.7488 155.086 88.9901 154.895 88.2232 154.921C74.7962 155.482 73.9097 155.945 73.1859 156.319C71.3254 157.29 69.8447 158.857 68.9809 160.769C68.1171 162.68 67.9201 164.826 68.4214 166.863C68.9228 168.9 70.0935 170.71 71.7462 172.003C73.3989 173.296 75.4379 173.998 77.5369 173.996H77.545ZM74.0073 163.52C74.2812 162.662 74.8597 161.933 75.6339 161.472C76.4959 161.301 79.3586 161.041 84.9458 160.765C81.5219 165.178 79.6595 167.38 79.0252 167.99C78.3768 168.28 77.6584 168.376 76.9564 168.268C76.2545 168.159 75.5989 167.85 75.0687 167.378C74.5384 166.905 74.1561 166.29 73.9678 165.605C73.7795 164.921 73.7932 164.197 74.0073 163.52Z" fill="black" fill-opacity="0.05"/>
<path d="M280.048 179.555C280.844 181.076 282.042 182.35 283.512 183.239C284.981 184.127 286.667 184.596 288.384 184.594C289.886 184.594 291.366 184.229 292.695 183.529C293.41 183.155 294.321 182.716 302.454 172.021C302.915 171.408 303.193 170.677 303.255 169.913C303.318 169.148 303.163 168.382 302.808 167.702C302.454 167.022 301.914 166.456 301.251 166.07C300.588 165.684 299.829 165.493 299.063 165.519C285.644 166.072 284.749 166.543 284.025 166.917C281.823 168.068 280.168 170.045 279.422 172.414C278.676 174.783 278.902 177.351 280.048 179.555ZM286.473 172.07C287.335 171.899 290.198 171.639 295.785 171.362C292.361 175.776 290.499 177.97 289.864 178.588C289.014 178.935 288.065 178.953 287.203 178.637C286.34 178.322 285.627 177.696 285.202 176.882C284.778 176.068 284.673 175.125 284.908 174.238C285.143 173.351 285.701 172.583 286.473 172.086V172.07Z" fill="black" fill-opacity="0.05"/>
<path d="M141.996 142.568C141.473 143.133 141.124 143.837 140.991 144.595C140.859 145.353 140.948 146.134 141.248 146.843C146.388 159.245 147.136 159.928 147.754 160.472C149.476 162.044 151.725 162.914 154.057 162.91H154.521C156.366 162.818 158.143 162.183 159.629 161.084C161.114 159.986 162.241 158.474 162.87 156.737C163.498 155.001 163.599 153.117 163.159 151.324C162.72 149.53 161.76 147.906 160.401 146.656C159.807 146.111 159.059 145.437 146.225 141.462C145.489 141.218 144.698 141.192 143.947 141.389C143.196 141.585 142.519 141.994 141.996 142.568ZM156.684 150.988C157.178 151.493 157.515 152.13 157.655 152.823C157.796 153.515 157.733 154.233 157.476 154.891C157.219 155.549 156.777 156.118 156.204 156.532C155.63 156.945 154.95 157.184 154.244 157.221C153.342 157.27 152.455 156.98 151.756 156.408C151.3 155.661 150.072 153.06 147.893 147.916C153.195 149.614 155.895 150.597 156.684 150.988Z" fill="black" fill-opacity="0.05"/>
<path d="M137.084 95.7794H137.125C137.891 95.7825 138.643 95.566 139.29 95.1555C139.937 94.745 140.453 94.1577 140.776 93.4631C146.608 81.3698 146.616 80.362 146.624 79.5575C146.648 77.0728 145.684 74.6802 143.944 72.905C142.204 71.1298 139.831 70.1171 137.344 70.0892H137.255C134.785 70.0891 132.415 71.063 130.659 72.7993C128.903 74.5356 127.904 76.8941 127.878 79.3624C127.878 80.1751 127.878 81.1829 133.441 93.39C133.753 94.0969 134.263 94.6986 134.909 95.1226C135.556 95.5465 136.311 95.7746 137.084 95.7794ZM137.255 75.8027C138.193 75.8138 139.091 76.1811 139.768 76.8302C140.445 77.4793 140.849 78.3614 140.898 79.2974C140.638 80.1101 139.524 82.7921 137.133 87.8391C134.848 82.7433 133.791 80.0695 133.547 79.2242C133.615 78.29 134.036 77.4167 134.724 76.7813C135.413 76.1459 136.318 75.7961 137.255 75.8027Z" fill="black" fill-opacity="0.05"/>
<path d="M272.127 122.526H272.168C272.931 122.531 273.679 122.319 274.326 121.915C274.972 121.51 275.491 120.93 275.819 120.242C281.651 108.141 281.659 107.133 281.667 106.328C281.691 103.844 280.727 101.451 278.987 99.676C277.247 97.9008 274.874 96.8881 272.387 96.8602H272.29C269.822 96.8643 267.455 97.8398 265.701 99.5755C263.948 101.311 262.949 103.667 262.921 106.133C262.921 106.946 262.921 107.954 268.484 120.161C268.799 120.863 269.311 121.46 269.957 121.879C270.603 122.299 271.357 122.523 272.127 122.526ZM272.33 102.549C273.268 102.56 274.167 102.928 274.844 103.577C275.52 104.226 275.924 105.108 275.974 106.044C275.714 106.857 274.6 109.539 272.209 114.586C269.923 109.49 268.858 106.816 268.622 105.971C268.69 105.037 269.111 104.163 269.8 103.528C270.489 102.893 271.393 102.543 272.33 102.549Z" fill="black" fill-opacity="0.05"/>
<path d="M226.275 160.106C226.945 160.483 227.707 160.662 228.474 160.623C229.241 160.584 229.982 160.329 230.61 159.887C241.581 152.134 242.077 151.256 242.475 150.557C243.704 148.396 244.023 145.836 243.362 143.44C242.702 141.044 241.116 139.008 238.954 137.781C237.883 137.172 236.703 136.781 235.48 136.629C234.258 136.477 233.017 136.567 231.83 136.895C230.642 137.222 229.531 137.781 228.56 138.538C227.588 139.295 226.776 140.237 226.169 141.308C225.771 142.007 225.275 142.885 224.234 156.27C224.169 157.038 224.327 157.808 224.689 158.489C225.051 159.169 225.602 159.731 226.275 160.106ZM231.236 143.925C231.752 143.15 232.543 142.599 233.45 142.383C234.356 142.167 235.311 142.303 236.121 142.762C236.932 143.222 237.538 143.971 237.818 144.86C238.097 145.748 238.03 146.709 237.628 147.55C236.994 148.159 234.733 149.939 230.195 153.198C230.675 147.607 231.033 144.754 231.236 143.901V143.925Z" fill="black" fill-opacity="0.05"/>
<path d="M200.186 73.3807C200.787 73.9171 201.544 74.5835 214.442 78.3383C215.181 78.5538 215.967 78.5551 216.707 78.3421C217.447 78.129 218.111 77.7103 218.622 77.1348C219.133 76.5592 219.47 75.8504 219.594 75.0909C219.718 74.3314 219.624 73.5523 219.322 72.8443C213.979 60.5316 213.222 59.8408 212.612 59.3287C210.749 57.6838 208.309 56.8454 205.828 56.9978C203.347 57.1502 201.028 58.2809 199.38 60.1415C198.563 61.0636 197.936 62.1375 197.534 63.3019C197.133 64.4663 196.964 65.6984 197.039 66.9277C197.114 68.1571 197.43 69.3597 197.97 70.4669C198.51 71.5741 199.263 72.5642 200.186 73.3807ZM203.618 63.9206C204.239 63.2191 205.104 62.78 206.037 62.6925C206.971 62.605 207.902 62.8755 208.644 63.4492C209.115 64.197 210.392 66.7733 212.653 71.8853C207.302 70.2599 204.585 69.3334 203.788 68.9676C203.123 68.3057 202.735 67.4154 202.704 66.4779C202.672 65.5404 202.999 64.626 203.618 63.9206Z" fill="black" fill-opacity="0.05"/>
<path d="M331.943 307.477H326.12C332.195 301.154 337.506 293.45 337.506 281.048C337.507 278.72 337.32 276.396 336.944 274.099C350.144 272.652 357.943 259.112 357.943 245.987C357.943 231.212 348.338 220.898 334.594 220.898H329.593V206.05C334.286 204.249 338.456 201.307 341.727 197.492C344.53 194.208 346.585 190.354 347.748 186.197C348.911 182.04 349.154 177.679 348.46 173.419C339.945 121.201 307.073 75.2663 260.367 50.0882L265.58 35.7599L318.801 55.6634C319.329 55.8636 319.904 55.9018 320.454 55.7732C321.004 55.6445 321.503 55.3548 321.887 54.9412C322.272 54.5275 322.524 54.0087 322.611 53.4511C322.699 52.8935 322.618 52.3225 322.379 51.8111L314.157 33.9963L331.837 25.869C332.347 25.6321 332.776 25.2492 333.069 24.769C333.361 24.2887 333.505 23.7325 333.482 23.1707C333.458 22.6089 333.268 22.0666 332.937 21.6124C332.605 21.1582 332.146 20.8125 331.618 20.6189L275.518 0.170757C274.808 -0.0864134 274.024 -0.0513398 273.339 0.268284C272.998 0.427405 272.693 0.653285 272.442 0.93251C272.19 1.21173 271.998 1.53861 271.875 1.89373L261.221 31.1517L255.276 47.4631C231.211 35.5463 204.683 29.4361 177.826 29.6232C150.969 29.8102 124.529 36.2894 100.632 48.5402C76.7349 60.791 56.046 78.472 40.2271 100.163C24.4082 121.854 13.9004 146.95 9.54775 173.435C8.85269 177.692 9.09356 182.049 10.2536 186.203C11.4137 190.357 13.4651 194.21 16.2653 197.492C19.5129 201.311 23.6604 204.264 28.3342 206.082V220.898H26.114C15.2487 220.898 7.62844 224.409 3.45638 231.342C0 237.087 0 243.768 0 247.759C0 262.436 7.7667 271.872 21.0555 273.847C20.6519 276.226 20.4479 278.635 20.4455 281.048C20.3636 290.808 23.9576 300.242 30.5138 307.477H26.0245C21.0604 307.499 16.3065 309.483 12.8016 312.996C9.29676 316.509 7.3258 321.266 7.3194 326.227V332.265C7.33232 342.271 11.3159 351.862 18.3962 358.936C25.4765 366.011 35.0755 369.989 45.0875 370H312.945C322.956 369.989 332.554 366.01 339.633 358.936C346.712 351.862 350.694 342.27 350.705 332.265V326.227C350.699 321.256 348.72 316.491 345.203 312.976C341.685 309.461 336.917 307.484 331.943 307.477ZM276.25 6.50186L323.184 23.569L309.188 30.0708C308.848 30.2274 308.542 30.4495 308.288 30.7243C308.034 30.999 307.837 31.3212 307.708 31.6722C307.579 32.0232 307.52 32.3962 307.536 32.7699C307.551 33.1436 307.64 33.5106 307.797 33.85L314.303 47.9588L267.565 30.4203L276.25 6.50186ZM344.174 245.987C344.174 254.618 339.246 260.421 334.651 260.421C333.835 260.427 333.019 260.37 332.211 260.25C327.441 251.6 319.832 244.858 310.668 241.159C309.846 240.826 308.968 240.655 308.082 240.655C292.54 240.655 286.571 246.93 281.781 251.968C277.283 256.69 273.729 260.421 259.822 260.421C247.729 260.421 239.662 257.341 232.033 253.569L249.925 234.714H334.651C342.938 234.714 344.174 241.777 344.174 245.987ZM194.159 242.736L186.238 234.714H230.854L215.727 250.66L215.678 250.717L209.01 257.771L194.159 242.736ZM42.176 208.106H315.824V220.898H42.176V208.106ZM26.8378 188.552C25.3331 186.793 24.2293 184.729 23.6029 182.502C22.9766 180.275 22.8427 177.938 23.2106 175.654C27.2396 151.181 36.9837 128.001 51.6526 107.995C66.3214 87.9883 85.5021 71.7185 107.639 60.5046C129.776 49.2908 154.246 43.4486 179.065 43.4518C203.884 43.4551 228.352 49.3038 250.486 60.5235L238.913 92.301C238.785 92.6515 238.727 93.0239 238.743 93.3968C238.759 93.7697 238.849 94.1358 239.007 94.4741C239.165 94.8123 239.388 95.1161 239.664 95.368C239.939 95.6199 240.262 95.8149 240.613 95.942C240.925 96.0576 241.256 96.1155 241.589 96.1126C242.173 96.113 242.743 95.9338 243.222 95.5994C243.7 95.265 244.064 94.7916 244.265 94.2434L255.561 63.2136C276.363 74.804 294.286 90.9262 308.002 110.384C321.717 129.842 330.873 152.136 334.789 175.613C335.168 177.901 335.043 180.244 334.422 182.479C333.801 184.714 332.7 186.786 331.195 188.552C329.655 190.363 327.74 191.818 325.581 192.816C323.423 193.814 321.073 194.331 318.695 194.33H39.3052C36.9322 194.327 34.5881 193.809 32.4354 192.812C30.2826 191.814 28.3727 190.36 26.8378 188.552ZM13.8255 247.799C13.8255 240.225 13.8255 234.755 26.114 234.755H166.809L174.722 242.777C167.224 244.89 161.71 248.287 156.668 251.432C148.868 256.308 142.135 260.461 128.098 260.461C113.459 260.461 107.644 255.869 101.504 251.009C95.51 246.263 88.7193 240.891 75.7395 240.891C61.2634 240.891 51.3415 247.58 43.3634 252.96C38.2073 256.438 33.7424 259.462 29.0255 260.274C28.1957 260.42 27.3549 260.493 26.5125 260.494C17.6154 260.421 13.8255 256.633 13.8255 247.759V247.799ZM34.2711 281.121C34.2687 278.34 34.6658 275.573 35.4503 272.904C41.2733 271.067 46.2586 267.711 51.1057 264.444C58.5064 259.454 65.5005 254.74 75.7477 254.74C83.8803 254.74 87.6945 257.731 92.9239 261.867C99.9261 267.41 108.644 274.31 128.106 274.31C146.087 274.31 155.594 268.402 163.971 263.192C170.583 259.088 176.381 255.504 186.49 254.715L204.162 272.595C204.798 273.245 205.557 273.763 206.395 274.117C207.233 274.471 208.132 274.656 209.042 274.66H209.107C210.036 274.65 210.953 274.453 211.803 274.082C212.654 273.71 213.422 273.172 214.06 272.498L222.054 264.062C231.57 269.003 242.524 274.278 259.766 274.278C279.625 274.278 286.351 267.207 291.759 261.534C295.582 257.519 298.168 254.805 306.683 254.537C313.035 257.461 318.13 262.561 321.045 268.914C322.807 272.736 323.712 276.896 323.696 281.105C323.696 288.89 320.557 293.555 315.141 298.984C312.43 301.705 309.207 303.863 305.657 305.331C302.107 306.8 298.301 307.552 294.459 307.542H63.4917C46.5595 307.477 34.2711 296.359 34.2711 281.048V281.121ZM336.879 332.322C336.873 338.664 334.349 344.744 329.862 349.228C325.375 353.712 319.291 356.234 312.945 356.241H45.0631C38.7109 356.228 32.6236 353.695 28.1388 349.2C23.654 344.704 21.1385 338.613 21.1449 332.265V326.227C21.1448 324.928 21.6571 323.682 22.5706 322.758C23.4841 321.835 24.7252 321.309 26.0245 321.294H331.943C333.252 321.294 334.508 321.813 335.434 322.739C336.359 323.664 336.879 324.918 336.879 326.227V332.322Z" fill="black" fill-opacity="0.05"/>
<path d="M60.9381 118.657C60.6613 118.398 60.3356 118.197 59.98 118.066C59.6244 117.934 59.2461 117.875 58.8673 117.892C58.4885 117.909 58.1168 118.001 57.7742 118.163C57.4315 118.325 57.1247 118.554 56.8717 118.836C48.1617 128.41 35.8244 156.498 32.4656 174.532C32.3278 175.274 32.4902 176.039 32.9172 176.661C33.3443 177.283 34.0009 177.71 34.7428 177.848C34.9165 177.884 35.0939 177.901 35.2714 177.897C35.9384 177.895 36.5836 177.659 37.0937 177.23C37.6038 176.8 37.9462 176.205 38.0609 175.548C41.1513 158.96 53.212 131.255 61.117 122.607C61.6055 122.054 61.8599 121.333 61.8265 120.596C61.7931 119.859 61.4746 119.164 60.9381 118.657Z" fill="black" fill-opacity="0.05"/>
<path d="M116.11 344.984H45.974C38.3699 344.984 32.8641 338.564 32.8641 334.232C32.8641 333.478 32.5642 332.754 32.0304 332.221C31.4966 331.687 30.7726 331.388 30.0177 331.388C29.2628 331.388 28.5388 331.687 28.005 332.221C27.4712 332.754 27.1713 333.478 27.1713 334.232C27.1713 341.831 35.3853 350.673 45.974 350.673H116.11C116.865 350.673 117.589 350.374 118.123 349.84C118.657 349.307 118.957 348.583 118.957 347.829C118.957 347.075 118.657 346.351 118.123 345.818C117.589 345.284 116.865 344.984 116.11 344.984Z" fill="black" fill-opacity="0.05"/>
</g>
<defs>
<clipPath id="clip0_55_379">
<rect width="358" height="370" fill="white"/>
</clipPath>
</defs>
</svg>
