<svg width="21" height="20" viewBox="0 0 21 20" fill="none" xmlns="http://www.w3.org/2000/svg">
<path d="M20.2769 10C20.2769 15.5229 15.7997 20 10.2769 20C4.75399 20 0.276855 15.5229 0.276855 10C0.276855 4.47714 4.75399 0 10.2769 0C15.7997 0 20.2769 4.47714 20.2769 10ZM9.12016 15.2949L16.5395 7.87556C16.7915 7.62363 16.7915 7.21512 16.5395 6.96319L15.6271 6.05081C15.3752 5.79883 14.9667 5.79883 14.7147 6.05081L8.66395 12.1015L5.83899 9.27657C5.58706 9.02464 5.17855 9.02464 4.92657 9.27657L4.01419 10.189C3.76226 10.4409 3.76226 10.8494 4.01419 11.1013L8.20774 15.2949C8.45972 15.5469 8.86819 15.5469 9.12016 15.2949Z" fill="#D1003F"/>
</svg>
