<svg width="106" height="30" viewBox="0 0 106 30" fill="none" xmlns="http://www.w3.org/2000/svg">
<path d="M28.981 29.6045H23.2967V9.35398C23.2967 8.95846 23.2172 8.58932 23.0582 8.24654C22.9124 7.90376 22.7071 7.60712 22.4421 7.35662C22.1903 7.09295 21.8922 6.8886 21.5477 6.74356C21.2032 6.59855 20.8322 6.52604 20.4347 6.52604C20.0372 6.52604 19.6662 6.59855 19.3217 6.74356C18.9772 6.8886 18.6724 7.09295 18.4074 7.35662C18.1557 7.60712 17.9569 7.90376 17.8112 8.24654C17.6654 8.58932 17.5926 8.95846 17.5926 9.35398V29.6045H11.8884V9.35398C11.8884 8.95846 11.8155 8.58932 11.6698 8.24654C11.5241 7.90376 11.3187 7.60712 11.0537 7.35662C10.8019 7.09295 10.5038 6.8886 10.1593 6.74356C9.81478 6.59855 9.44378 6.52604 9.04628 6.52604C8.64879 6.52604 8.27779 6.59855 7.93328 6.74356C7.58878 6.8886 7.28402 7.09295 7.01902 7.35662C6.76727 7.60712 6.56851 7.90376 6.42277 8.24654C6.27702 8.58932 6.20414 8.95846 6.20414 9.35398V29.6045H0.5V9.35398C0.5 8.18063 0.718626 7.07977 1.15588 6.05142C1.60638 5.00989 2.21588 4.10679 2.98437 3.34212C3.76613 2.56426 4.67376 1.95781 5.70726 1.52274C6.75401 1.07449 7.86704 0.850362 9.04628 0.850362C10.1063 0.850362 11.1265 1.04153 12.107 1.42386C13.0876 1.79301 13.9687 2.33356 14.7504 3.04549C15.5322 2.33356 16.4067 1.79301 17.3739 1.42386C18.3545 1.04153 19.3747 0.850362 20.4347 0.850362C21.6139 0.850362 22.7203 1.07449 23.7539 1.52274C24.8007 1.95781 25.7081 2.56426 26.4767 3.34212C27.2585 4.10679 27.8679 5.00989 28.3053 6.05142C28.7557 7.07977 28.981 8.18063 28.981 9.35398V29.6045Z" fill="#D1003F"/>
<path d="M41.7406 24.4232C41.9527 24.4892 42.1648 24.5352 42.3767 24.5617C42.5887 24.5748 42.8008 24.5813 43.0127 24.5813C43.5428 24.5813 44.0529 24.5088 44.5432 24.3639C45.0334 24.2188 45.4905 24.0145 45.9144 23.7508C46.3518 23.4741 46.7359 23.1443 47.0673 22.762C47.4118 22.3665 47.6899 21.9315 47.902 21.4568L51.8769 25.4317C51.3735 26.1436 50.7906 26.7831 50.1281 27.3501C49.4789 27.9168 48.7698 28.3982 48.0015 28.7938C47.2461 29.1891 46.4445 29.4858 45.5964 29.6836C44.7618 29.8945 43.9004 30 43.0127 30C41.5156 30 40.1044 29.7231 38.7793 29.1695C37.4676 28.6156 36.3149 27.8444 35.321 26.8555C34.3406 25.8669 33.5655 24.6935 32.9957 23.3356C32.426 21.9644 32.1411 20.4614 32.1411 18.8266C32.1411 17.1523 32.426 15.6229 32.9957 14.2386C33.5655 12.8543 34.3406 11.6744 35.321 10.6987C36.3149 9.72314 37.4676 8.96506 38.7793 8.42453C40.1044 7.88398 41.5156 7.6137 43.0127 7.6137C43.9004 7.6137 44.7685 7.71918 45.6164 7.93013C46.4645 8.14108 47.266 8.44431 48.0212 8.83982C48.7898 9.23534 49.5053 9.72314 50.1677 10.3032C50.8302 10.8701 51.4134 11.5096 51.9168 12.2215L41.7406 24.4232ZM44.5232 13.2894C44.2715 13.1971 44.0198 13.1378 43.7681 13.1114C43.5296 13.085 43.2778 13.0719 43.0127 13.0719C42.2707 13.0719 41.5684 13.2103 40.906 13.4871C40.2567 13.7508 39.687 14.1332 39.1968 14.6341C38.7197 15.1351 38.3422 15.7416 38.0638 16.4535C37.7856 17.1523 37.6466 17.9433 37.6466 18.8266C37.6466 19.0244 37.653 19.2485 37.6663 19.499C37.6929 19.7495 37.7261 20.0066 37.7657 20.2703C37.8188 20.5208 37.8783 20.7647 37.9446 21.002C38.0109 21.2393 38.0969 21.4502 38.2031 21.6348L44.5232 13.2894Z" fill="#D1003F"/>
<path d="M75.111 29.6045H73.7993L71.6926 26.6975C71.1757 27.1588 70.6259 27.594 70.0429 28.0027C69.4732 28.3982 68.8703 28.7476 68.2343 29.0508C67.5983 29.3407 66.9423 29.5715 66.2666 29.7429C65.6042 29.9144 64.9283 30 64.2394 30C62.7421 30 61.3309 29.7496 60.006 29.2486C58.6941 28.7476 57.5414 28.0223 56.5478 27.0732C55.5673 26.1108 54.7922 24.9374 54.2222 23.553C53.6525 22.1688 53.3676 20.5933 53.3676 18.8266C53.3676 17.1786 53.6525 15.6691 54.2222 14.298C54.7922 12.9136 55.5673 11.7271 56.5478 10.7383C57.5414 9.74951 58.6941 8.98484 60.006 8.44431C61.3309 7.89058 62.7421 7.6137 64.2394 7.6137C64.9283 7.6137 65.6107 7.69941 66.2866 7.8708C66.9622 8.04219 67.6182 8.27949 68.2542 8.58272C68.8902 8.88595 69.4931 9.24191 70.0629 9.65063C70.6458 10.0593 71.1891 10.501 71.6926 10.9756L73.7993 8.46408H75.111V29.6045ZM69.6454 18.8266C69.6454 18.0883 69.4996 17.3764 69.208 16.6908C68.9299 15.9921 68.5456 15.379 68.0553 14.8517C67.5651 14.3111 66.9886 13.8827 66.3262 13.5663C65.677 13.2366 64.9814 13.0719 64.2394 13.0719C63.4975 13.0719 62.7951 13.1971 62.1327 13.4476C61.4834 13.6981 60.9135 14.0672 60.4232 14.5551C59.9462 15.0429 59.5686 15.6493 59.2905 16.3744C59.0121 17.0864 58.8731 17.9037 58.8731 18.8266C58.8731 19.7495 59.0121 20.5735 59.2905 21.2986C59.5686 22.0105 59.9462 22.6104 60.4232 23.0982C60.9135 23.586 61.4834 23.9552 62.1327 24.2056C62.7951 24.4562 63.4975 24.5813 64.2394 24.5813C64.9814 24.5813 65.677 24.4232 66.3262 24.1068C66.9886 23.7771 67.5651 23.3488 68.0553 22.8214C68.5456 22.2808 68.9299 21.6678 69.208 20.9822C69.4996 20.2835 69.6454 19.5649 69.6454 18.8266Z" fill="#D1003F"/>
<path d="M84.7306 29.6044H79.2648V0H84.7306V29.6044Z" fill="#D1003F"/>
<path d="M105.5 29.6045H87.7515L96.7152 13.8431H87.7515V8.46409H105.5L96.5362 24.2255H105.5V29.6045Z" fill="#D1003F"/>
</svg>
