<svg width="105" height="31" viewBox="0 0 105 31" fill="none" xmlns="http://www.w3.org/2000/svg">
<path d="M28.481 29.8882H22.7967V9.63767C22.7967 9.24216 22.7172 8.87302 22.5582 8.53023C22.4124 8.18745 22.2071 7.89082 21.9421 7.64032C21.6903 7.37664 21.3922 7.17229 21.0477 7.02725C20.7032 6.88224 20.3322 6.80973 19.9347 6.80973C19.5372 6.80973 19.1662 6.88224 18.8217 7.02725C18.4772 7.17229 18.1724 7.37664 17.9074 7.64032C17.6557 7.89082 17.4569 8.18745 17.3112 8.53023C17.1654 8.87302 17.0926 9.24216 17.0926 9.63767V29.8882H11.3884V9.63767C11.3884 9.24216 11.3155 8.87302 11.1698 8.53023C11.0241 8.18745 10.8187 7.89082 10.5537 7.64032C10.3019 7.37664 10.0038 7.17229 9.65928 7.02725C9.31478 6.88224 8.94378 6.80973 8.54628 6.80973C8.14879 6.80973 7.77779 6.88224 7.43328 7.02725C7.08878 7.17229 6.78402 7.37664 6.51902 7.64032C6.26727 7.89082 6.06851 8.18745 5.92277 8.53023C5.77702 8.87302 5.70414 9.24216 5.70414 9.63767V29.8882H0V9.63767C0 8.46432 0.218626 7.36346 0.655877 6.33511C1.10638 5.29358 1.71588 4.39048 2.48437 3.62581C3.26613 2.84795 4.17376 2.2415 5.20726 1.80643C6.25401 1.35818 7.36704 1.13405 8.54628 1.13405C9.6063 1.13405 10.6265 1.32522 11.607 1.70755C12.5876 2.0767 13.4687 2.61725 14.2504 3.32918C15.0322 2.61725 15.9067 2.0767 16.8739 1.70755C17.8545 1.32522 18.8747 1.13405 19.9347 1.13405C21.1139 1.13405 22.2203 1.35818 23.2539 1.80643C24.3007 2.2415 25.2081 2.84795 25.9767 3.62581C26.7585 4.39048 27.3679 5.29358 27.8053 6.33511C28.2557 7.36346 28.481 8.46432 28.481 9.63767V29.8882Z" fill="white"/>
<path d="M41.2406 24.7069C41.4527 24.7729 41.6648 24.8188 41.8767 24.8454C42.0887 24.8585 42.3008 24.865 42.5127 24.865C43.0428 24.865 43.5529 24.7925 44.0432 24.6476C44.5334 24.5025 44.9905 24.2982 45.4144 24.0345C45.8518 23.7578 46.2359 23.428 46.5673 23.0457C46.9118 22.6502 47.1899 22.2151 47.402 21.7405L51.3769 25.7154C50.8735 26.4273 50.2906 27.0668 49.6281 27.6338C48.9789 28.2005 48.2698 28.6819 47.5015 29.0775C46.7461 29.4728 45.9445 29.7695 45.0964 29.9673C44.2618 30.1782 43.4004 30.2837 42.5127 30.2837C41.0156 30.2837 39.6044 30.0068 38.2793 29.4532C36.9676 28.8993 35.8149 28.1281 34.821 27.1392C33.8406 26.1506 33.0655 24.9771 32.4957 23.6193C31.926 22.2481 31.6411 20.7451 31.6411 19.1103C31.6411 17.436 31.926 15.9066 32.4957 14.5223C33.0655 13.138 33.8406 11.9581 34.821 10.9824C35.8149 10.0068 36.9676 9.24875 38.2793 8.70822C39.6044 8.16767 41.0156 7.89739 42.5127 7.89739C43.4004 7.89739 44.2685 8.00288 45.1164 8.21382C45.9645 8.42477 46.766 8.728 47.5212 9.12351C48.2898 9.51903 49.0053 10.0068 49.6677 10.5869C50.3302 11.1538 50.9134 11.7933 51.4168 12.5052L41.2406 24.7069ZM44.0232 13.5731C43.7715 13.4808 43.5198 13.4215 43.2681 13.3951C43.0296 13.3687 42.7778 13.3555 42.5127 13.3555C41.7707 13.3555 41.0684 13.494 40.406 13.7708C39.7567 14.0345 39.187 14.4169 38.6968 14.9178C38.2197 15.4188 37.8422 16.0253 37.5638 16.7372C37.2856 17.436 37.1466 18.227 37.1466 19.1103C37.1466 19.3081 37.153 19.5322 37.1663 19.7827C37.1929 20.0332 37.2261 20.2903 37.2657 20.554C37.3188 20.8045 37.3783 21.0484 37.4446 21.2857C37.5109 21.523 37.5969 21.7339 37.7031 21.9185L44.0232 13.5731Z" fill="white"/>
<path d="M74.611 29.8882H73.2993L71.1926 26.9812C70.6757 27.4425 70.1259 27.8777 69.5429 28.2864C68.9732 28.6819 68.3703 29.0313 67.7343 29.3345C67.0983 29.6244 66.4423 29.8552 65.7666 30.0266C65.1042 30.1981 64.4283 30.2837 63.7394 30.2837C62.2421 30.2837 60.8309 30.0333 59.506 29.5323C58.1941 29.0313 57.0414 28.306 56.0478 27.3568C55.0673 26.3945 54.2922 25.2211 53.7222 23.8367C53.1525 22.4524 52.8676 20.877 52.8676 19.1103C52.8676 17.4623 53.1525 15.9528 53.7222 14.5816C54.2922 13.1973 55.0673 12.0108 56.0478 11.022C57.0414 10.0332 58.1941 9.26853 59.506 8.728C60.8309 8.17427 62.2421 7.89739 63.7394 7.89739C64.4283 7.89739 65.1107 7.9831 65.7866 8.15449C66.4622 8.32588 67.1182 8.56318 67.7542 8.86641C68.3902 9.16964 68.9931 9.52561 69.5629 9.93432C70.1458 10.343 70.6891 10.7847 71.1926 11.2593L73.2993 8.74778H74.611V29.8882ZM69.1454 19.1103C69.1454 18.372 68.9996 17.6601 68.708 16.9745C68.4299 16.2758 68.0456 15.6627 67.5553 15.1354C67.0651 14.5948 66.4886 14.1664 65.8262 13.8499C65.177 13.5203 64.4814 13.3555 63.7394 13.3555C62.9975 13.3555 62.2951 13.4808 61.6327 13.7313C60.9834 13.9818 60.4135 14.3509 59.9232 14.8387C59.4462 15.3265 59.0686 15.933 58.7905 16.6581C58.5121 17.3701 58.3731 18.1874 58.3731 19.1103C58.3731 20.0332 58.5121 20.8572 58.7905 21.5823C59.0686 22.2942 59.4462 22.8941 59.9232 23.3818C60.4135 23.8697 60.9834 24.2389 61.6327 24.4893C62.2951 24.7399 62.9975 24.865 63.7394 24.865C64.4814 24.865 65.177 24.7069 65.8262 24.3905C66.4886 24.0608 67.0651 23.6325 67.5553 23.1051C68.0456 22.5645 68.4299 21.9515 68.708 21.2659C68.9996 20.5672 69.1454 19.8486 69.1454 19.1103Z" fill="white"/>
<path d="M84.2306 29.8881H78.7648V0.283691H84.2306V29.8881Z" fill="white"/>
<path d="M105 29.8882H87.2515L96.2152 14.1268H87.2515V8.74778H105L96.0362 24.5092H105V29.8882Z" fill="white"/>
</svg>
